<svg id="Group_10542" data-name="Group 10542" xmlns="http://www.w3.org/2000/svg" width="34.3" height="19.872" viewBox="0 0 34.3 19.872">
  <path id="Path_18429" data-name="Path 18429" d="M0,17.558a1.285,1.285,0,0,1,1.38-.813c1.047.033,2.1.007,3.145.009A1.07,1.07,0,0,1,5.71,17.933q0,5.973,0,11.947a1.056,1.056,0,0,1-1.165,1.16c-1.071,0-2.142-.021-3.212.01A1.24,1.24,0,0,1,0,30.221Z" transform="translate(0 -15.248)" fill="#7871ff"/>
  <path id="Path_18430" data-name="Path 18430" d="M325.769,30.215a1.237,1.237,0,0,1-1.332.829c-1.059-.03-2.119-.006-3.179-.009a1.068,1.068,0,0,1-1.2-1.193q0-5.94,0-11.881a1.078,1.078,0,0,1,1.217-1.212c1.037,0,2.076.025,3.112-.01a1.294,1.294,0,0,1,1.381.813Z" transform="translate(-291.47 -15.243)" fill="#7871ff"/>
  <path id="Path_18431" data-name="Path 18431" d="M86.871,10.708c-1.885,1.045-2.863,2.567-2.52,4.68a4.227,4.227,0,0,0,3.841,3.644c-.18.416.073.659.349.927,1.577,1.533,3.138,3.082,4.713,4.616a.376.376,0,0,1,.1.494,2.882,2.882,0,0,1-2.548,1.781.7.7,0,0,1-.489-.19q-2.465-2.436-4.907-4.9a2.97,2.97,0,0,1-.226-.289c-.32.352-.3.624-.007.915,1.621,1.584,3.235,3.175,4.867,4.746a.45.45,0,0,1,.079.675,2.986,2.986,0,0,1-4.457.706c-1.069-.931-2.113-1.891-3.158-2.849a6.26,6.26,0,0,0-2.269-1.379c-.189-.063-.225-.161-.225-.34q.007-5.811,0-11.622a.338.338,0,0,1,.25-.367c1.156-.469,2.3-.96,3.463-1.422a3.687,3.687,0,0,1,3.145.17" transform="translate(-72.866 -9.347)" fill="#f43397"/>
  <path id="Path_18432" data-name="Path 18432" d="M155.36,13.738a4.4,4.4,0,0,0,.167-3.513,4.491,4.491,0,0,0-1.054-1.612c-.812-.815-1.629-1.623-2.436-2.443a.3.3,0,0,0-.425-.071c-1.18.606-2.367,1.2-3.553,1.794a2.9,2.9,0,1,1-2.6-5.173q2.289-1.143,4.577-2.288a3.714,3.714,0,0,1,3.172-.145c1.552.622,3.1,1.262,4.643,1.894.135.055.234.095.234.3q-.018,5.308,0,10.615a.564.564,0,0,1-.364.591,2.766,2.766,0,0,1-2.361.053" transform="translate(-130.927 0.001)" fill="#f43397"/>
  <path id="Path_18433" data-name="Path 18433" d="M174.85,89.285a4.977,4.977,0,0,0,2.466-.667c.773-.42,1.564-.805,2.355-1.189a.364.364,0,0,1,.329.053c.655.638,1.319,1.269,1.934,1.945a2.8,2.8,0,0,1,.586,2.96,2.912,2.912,0,0,1-2.345,2,.449.449,0,0,1-.348-.1q-2.461-2.435-4.906-4.887a.777.777,0,0,1-.071-.118" transform="translate(-159.232 -79.602)" fill="#f43397"/>
  <rect id="Rectangle_4405" data-name="Rectangle 4405" width="34.3" height="19.872" fill="none"/>
</svg>
