<svg id="Group_10543" data-name="Group 10543" xmlns="http://www.w3.org/2000/svg" width="32.898" height="33.451" viewBox="0 0 32.898 33.451">
  <path id="Path_18409" data-name="Path 18409" d="M0,17.646a1.213,1.213,0,0,1,1.317-.806c.993.024,1.987,0,2.98.007a1.055,1.055,0,0,1,1.2,1.194q0,4.8,0,9.592a1.051,1.051,0,0,1-1.207,1.185c-.971,0-1.942-.026-2.912.009A1.3,1.3,0,0,1,0,28.064Z" transform="translate(0 4.622)" fill="#7871ff"/>
  <path id="Path_18410" data-name="Path 18410" d="M82.463,11.3v-.337c0-2.284.005-4.568-.006-6.852,0-.289.084-.377.366-.362a2.208,2.208,0,0,0,1.109-.036c.264-.154.342-.618.517-.938A4.125,4.125,0,0,1,88.213.458c2.272-.029,4.545-.025,6.818,0a2.2,2.2,0,1,1-.023,4.4c-1.039.022-2.078,0-3.118.008a1.742,1.742,0,0,0-.538.066,1.012,1.012,0,0,0-.673,1.01,1.04,1.04,0,0,0,.819.938.941.941,0,0,0,.2.031c1.4-.01,2.809.01,4.211-.045a2.962,2.962,0,0,0,1.962-1.015q2.393-2.4,4.8-4.8A3.346,3.346,0,0,1,107.39.9a1.019,1.019,0,0,1,.062,1.59q-3.76,3.774-7.539,7.529a4.426,4.426,0,0,1-3.188,1.3c-4.671.014-9.342.007-14.012.006-.067,0-.134-.01-.249-.019" transform="translate(-74.906 19.919)" fill="#f43397"/>
  <rect id="Rectangle_4398" data-name="Rectangle 4398" width="32.898" height="13.533" transform="translate(0 19.919)" fill="none"/>
  <circle id="Ellipse_747" data-name="Ellipse 747" cx="8.563" cy="8.563" r="8.563" transform="translate(8.872)" fill="#f43397"/>
  <path id="Path_18434" data-name="Path 18434" d="M1.007-11.277a3.862,3.862,0,0,1,.481-2.086,1.748,1.748,0,0,1,1.6-.754,1.748,1.748,0,0,1,1.6.754,3.862,3.862,0,0,1,.481,2.086,3.92,3.92,0,0,1-.481,2.1,1.742,1.742,0,0,1-1.6.762,1.742,1.742,0,0,1-1.6-.762A3.92,3.92,0,0,1,1.007-11.277Zm3.094,0a5.3,5.3,0,0,0-.073-.958,1.291,1.291,0,0,0-.292-.635.826.826,0,0,0-.65-.246.826.826,0,0,0-.65.246,1.291,1.291,0,0,0-.292.635,5.3,5.3,0,0,0-.073.958,5.834,5.834,0,0,0,.069.981,1.232,1.232,0,0,0,.292.639.845.845,0,0,0,.654.242.845.845,0,0,0,.654-.242,1.232,1.232,0,0,0,.292-.639A5.834,5.834,0,0,0,4.1-11.277Zm1.756-1.355a1.214,1.214,0,0,1,.343-.916,1.216,1.216,0,0,1,.881-.331,1.216,1.216,0,0,1,.881.331,1.214,1.214,0,0,1,.343.916,1.224,1.224,0,0,1-.343.924,1.216,1.216,0,0,1-.881.331,1.216,1.216,0,0,1-.881-.331A1.224,1.224,0,0,1,5.857-12.631ZM10.8-13.786,7.774-8.4H6.727l3.017-5.388Zm-3.725.554q-.423,0-.423.6t.423.608a.385.385,0,0,0,.323-.15.748.748,0,0,0,.115-.458Q7.512-13.232,7.073-13.232ZM9.236-9.56a1.212,1.212,0,0,1,.343-.92,1.224,1.224,0,0,1,.881-.327,1.2,1.2,0,0,1,.874.327,1.227,1.227,0,0,1,.335.92,1.24,1.24,0,0,1-.335.924,1.189,1.189,0,0,1-.874.331,1.212,1.212,0,0,1-.885-.331A1.232,1.232,0,0,1,9.236-9.56Zm1.216-.6q-.439,0-.439.6t.439.608q.431,0,.431-.608T10.452-10.161Z" transform="translate(11.097 19.774)" fill="rgba(255,255,255,0.87)"/>
</svg>
