<svg xmlns="http://www.w3.org/2000/svg" width="37.347" height="38.845" viewBox="0 0 37.347 38.845">
  <g id="Group_10519" data-name="Group 10519" transform="translate(6052.923 -413.5)">
    <path id="Path_18420" data-name="Path 18420" d="M19.472,0c0,2.173,0,4.347,0,6.52a4.345,4.345,0,0,0,4.467,4.494c1.831.013,3.662,0,5.493,0h.519V19.46c-.506,0-1.007-.014-1.506,0a13.72,13.72,0,0,0-8.286,3.1,1.783,1.783,0,0,1-1.21.415C15,22.96,11.06,22.967,7.115,22.967H6.8c-.74,0-1.151.3-1.152.829s.41.83,1.15.831q5.336,0,10.673,0h.548c-.12.187-.2.3-.273.427-.542.938-1.1,1.868-1.611,2.821a.546.546,0,0,1-.565.357c-2.813-.012-5.627-.007-8.44-.007h-.4c-.675,0-1.063.3-1.077.808s.383.838,1.087.841c1.042,0,2.084,0,3.126,0H15.41a14.421,14.421,0,0,0,.673,8.969H3.929A3.758,3.758,0,0,1,.766,37.4,3.872,3.872,0,0,1,0,34.936Q0,28.6,0,22.254,0,13.1,0,3.945A3.7,3.7,0,0,1,2.087.383,7.94,7.94,0,0,1,3.216,0ZM11.7,19.471q2.454,0,4.908,0a2.1,2.1,0,0,0,.487-.039.792.792,0,0,0,.614-.82.768.768,0,0,0-.685-.755,3.47,3.47,0,0,0-.533-.03q-4.8,0-9.594,0a3.683,3.683,0,0,0-.577.035.737.737,0,0,0-.633.6c-.136.56.258,1,.927,1,1.7.007,3.391,0,5.087,0" transform="translate(-6052.923 413.5)" fill="#f43397"/>
    <path id="Path_18422" data-name="Path 18422" d="M236.329,14.746l7.635,8.027c-.194.015-.316.032-.438.032-1.458,0-2.916.005-4.374,0a2.654,2.654,0,0,1-2.872-2.7c-.065-1.723-.016-3.451-.015-5.177a.846.846,0,0,1,.064-.185" transform="translate(-6268.069 400.071)" fill="#7871ff"/>
    <path id="Path_18423" data-name="Path 18423" d="M222.411,321.764a20.461,20.461,0,0,1-4.419-3.973c.764-.759,1.479-1.537,2.264-2.235a13.15,13.15,0,0,1,5.063-2.987,7.953,7.953,0,0,1,5.667.529l-.956.763c-.2-.1-.523-.281-.862-.421a4.711,4.711,0,0,0-5.84,6.682c.192.325.2.525-.1.777a10.648,10.648,0,0,0-.819.865" transform="translate(-6252.444 127.124)" fill="#7871ff"/>
    <path id="Path_18424" data-name="Path 18424" d="M291.577,332.476l1.231-1.141a20.334,20.334,0,0,1,4.3,3.867c-2.14,2.377-4.427,4.5-7.61,5.334a7.753,7.753,0,0,1-5.358-.608l.83-.834a4.757,4.757,0,0,0,6.607-6.618" transform="translate(-6312.683 109.759)" fill="#7871ff"/>
    <path id="Path_18425" data-name="Path 18425" d="M293.754,340.374l-4.113,4.122a2.958,2.958,0,0,1,.469-3.526,3.03,3.03,0,0,1,3.644-.6" transform="translate(-6317.338 101.86)" fill="#7871ff"/>
    <path id="Path_18426" data-name="Path 18426" d="M307.5,362.685l4.116-4.117a2.881,2.881,0,0,1-.268,3.349,3.014,3.014,0,0,1-3.848.768" transform="translate(-6333.956 84.958)" fill="#7871ff"/>
    <path id="Path_18465" data-name="Path 18465" d="M93.1-512.054c-.1.041-.1.055-.1.522,0,.407,0,.425.032.464.061.077.058.077.719.086a2.991,2.991,0,0,1,1.032.1,1.226,1.226,0,0,1,.545.334.793.793,0,0,1,.115.173c0,.008-.526.014-1.17.014H93.1l-.052.052-.052.052v.347c0,.379,0,.391.091.437a8.622,8.622,0,0,0,1.238.023h1.194l-.009.044a1.083,1.083,0,0,1-.182.343,1.541,1.541,0,0,1-.96.495,4.174,4.174,0,0,1-.719.042c-.581.011-.578.009-.628.094-.021.035-.024.1-.024.438a2.544,2.544,0,0,0,.017.426c.009.017.14.165.291.331.554.6,1.249,1.4,2.072,2.373a7.066,7.066,0,0,0,.482.543c.02.008.294.014.613.014.639,0,.642,0,.687-.1.053-.114.079-.073-.443-.707-.731-.886-1.419-1.687-1.866-2.174a3.056,3.056,0,0,1-.228-.261.8.8,0,0,1,.118-.023,2.41,2.41,0,0,0,1.9-1.252,2.212,2.212,0,0,0,.174-.52l.02-.109h.484a2.039,2.039,0,0,0,.528-.023c.088-.046.091-.058.091-.435v-.346L97.9-510.3l-.044-.05-.513-.008-.513-.008-.042-.152a2.3,2.3,0,0,0-.241-.533.75.75,0,0,1-.059-.1c0-.006.3-.011.674-.011h.674l.047-.046c.058-.059.067-.127.061-.475-.006-.241-.009-.27-.038-.31a.229.229,0,0,0-.068-.061C97.782-512.084,93.164-512.082,93.1-512.054Z" transform="translate(-6139.251 931.07)" fill="#fff"/>
  </g>
</svg>
