<svg id="Group_10547" data-name="Group 10547" xmlns="http://www.w3.org/2000/svg" width="28.515" height="28.464" viewBox="0 0 28.515 28.464">
  <path id="Path_18435" data-name="Path 18435" d="M119.193,0c.348.314.691.635,1.046.94q2.237,1.92,4.48,3.833c.068.058.13.122.23.216h-2.455V21.713H115.8V5.013h-2.508c.141-.127.222-.2.306-.275q2.631-2.251,5.263-4.5a2.789,2.789,0,0,0,.22-.236Z" transform="translate(-104.88)" fill="#f43397"/>
  <path id="Path_18436" data-name="Path 18436" d="M0,320.066c.173-.188.354-.369.518-.564q1.768-2.106,3.527-4.22a.538.538,0,0,1,.466-.224c1.529.01,3.059.006,4.621.006-.045.1-.077.186-.117.266-.751,1.516-1.506,3.03-2.248,4.549a.375.375,0,0,1-.4.248c-2.123-.008-4.246,0-6.369,0v-.056" transform="translate(0 -291.663)" fill="#7871ff"/>
  <path id="Path_18437" data-name="Path 18437" d="M270.144,320.111q-3.188,0-6.376,0c-.152,0-.271,0-.358-.176-.768-1.571-1.548-3.137-2.324-4.7-.024-.048-.041-.1-.075-.18h.326c1.4,0,2.8.007,4.2-.006a.7.7,0,0,1,.609.281c1.258,1.522,2.528,3.033,3.8,4.547a1.989,1.989,0,0,0,.2.181Z" transform="translate(-241.629 -291.652)" fill="#7871ff"/>
  <path id="Path_18438" data-name="Path 18438" d="M114.73,320.065c.779-1.574,1.55-3.111,2.3-4.66a.58.58,0,0,1,.622-.387c1.929.017,3.859.012,5.788,0a.375.375,0,0,1,.4.246c.743,1.521,1.5,3.035,2.25,4.552.036.073.068.149.112.247Z" transform="translate(-106.211 -291.625)" fill="#f43397"/>
  <path id="Path_18439" data-name="Path 18439" d="M49.883,135.526c.553.661,1.078,1.284,1.6,1.913a.383.383,0,0,1,.072.228q0,4.721,0,9.442a.338.338,0,0,1-.019.069H47.378v-6.646H45.7l4.181-5.006" transform="translate(-42.309 -125.462)" fill="#7871ff"/>
  <path id="Path_18440" data-name="Path 18440" d="M261.168,135.51l4.169,4.992h-1.654v6.656H259.5v-.285q0-4.555.007-9.109a.766.766,0,0,1,.161-.442c.48-.6.979-1.184,1.5-1.813" transform="translate(-240.228 -125.448)" fill="#7871ff"/>
  <rect id="Rectangle_4406" data-name="Rectangle 4406" width="28.515" height="28.464" fill="none"/>
</svg>
