<svg xmlns="http://www.w3.org/2000/svg" width="58" height="58" fill="none" viewBox="0 0 58 58">
    <path fill="#F05A9B" d="M25.353 27.21H14.745c-1.025 0-1.856-.832-1.856-1.857V14.745c0-1.025.831-1.856 1.856-1.856h10.608c1.025 0 1.857.831 1.857 1.856v10.608c0 1.025-.832 1.857-1.857 1.857z"/>
    <path fill="#EDEDFD" d="M43.255 27.21H32.646c-1.025 0-1.856-.832-1.856-1.857V14.745c0-1.025.831-1.856 1.856-1.856h10.609c1.025 0 1.856.831 1.856 1.856v10.608c0 1.025-.831 1.857-1.856 1.857zM25.353 45.112H14.745c-1.025 0-1.856-.831-1.856-1.857V32.648c0-1.025.831-1.857 1.856-1.857h10.608c1.025 0 1.857.832 1.857 1.857V43.26c0 1.02-.832 1.852-1.857 1.852z"/>
    <path fill="#F05A9B" d="M43.255 45.112H32.646c-1.025 0-1.856-.831-1.856-1.856V32.647c0-1.025.831-1.856 1.856-1.856h10.609c1.025 0 1.856.831 1.856 1.856v10.609c0 1.025-.831 1.856-1.856 1.856z"/>
</svg>
