<svg xmlns="http://www.w3.org/2000/svg" width="58" height="58" fill="none" viewBox="0 0 58 58">
    <path fill="#EDEDFD" d="M52.36 19.893l-1.422.555-2.73 5.797-1.038.165-.274 3.371h-.711l-.712-2.097-.548-.33-.6 1.049-.493-1.768 1.637-1.547-3.278-.33-.93-1.325-1.586-.498-.819.498 1.2 1.213-1.2 1.161.763 1.27.437 2.595-2.786 1.105.326 1.768-2.73 1.824-4.865 4.472-3.549 2.318.163 3.644-.818 1.712-.056 3.037-1.037.221-.438 1.933-2.46 2.266-2.186-2.098-2.841-9.497-1.586-2.487-.544-4.97.818-2.431-.274-3.648-.874 1.715-2.242 1.049-2.841-3.037 2.46-.607-1.749-.771-1.037-1.214 3.771-.719c-.194-.386-.393-.771-.588-1.157-.214-.422-.536-1.547-1.01-1.704.112-.084.195-.204.223-.345.032-.145.016-.29-.004-.434-.024-.189-.047-.378-.075-.563.226.029.445-.084.647-.196.108-.06.215-.121.29-.217.112-.141.136-.334.223-.49.012-.025.028-.045.048-.06.056-.037.131 0 .19.023.235.093.354-.044.565-.064.378-.04.771.157 1.14.076.41-.092.748-.498.982-.815.267-.358.529-.715.795-1.069.167-.225.334-.45.485-.687.095-.153.183-.31.274-.462.1-.16.207-.317.314-.474.08-.12.163-.237.243-.358.262-.385.524-.767.783-1.153.214-.317.433-.635.647-.952.12-.173.235-.346.354-.522.239-.354.787-.812.433-1.178-.397-.413-.648-.26-1.12-.454-.024-.18-.044-.361-.068-.542-.008-.06-.024-.137-.08-.16-.043-.02-.095 0-.139-.005-.159-.004-.238-.205-.385-.257-.111-.04-.235.008-.35-.024-.167-.048-.238-.237-.286-.406l-.123-.426c-.028-.1-.056-.209-.016-.305.024-.056.072-.1.107-.149.1-.148.084-.353.16-.514.079-.165.242-.261.385-.378.66-.534.278-1.12-.223-1.595-.238-.225-.397-.289-.703-.357-.27-.06-.7-.125-.827-.418-.044-.1-.036-.217-.087-.313-.068-.133-.239-.237-.211-.386.02-.1.123-.157.223-.18.099-.025.202-.025.29-.077.047-.028.087-.077.127-.117.143-.164.306-.337.52-.357.362-.032.811-.073 1.137-.27.21-.128.294-.405.497-.55.25-.18.592-.104.894-.16.644-.117.787.144 1.264.518.401.313.807.614 1.212.924l1.71 1.301 2.404-.385c.5-.08 1.088.458 1.283.82.111.204.457.498.37.787-.14.466-.735.703-1.137.84.092.273.048.59-.115.827-.048.069-.107.133-.14.213-.17.402.406.832.251 1.242-.06.152-.202.249-.341.333-.144.088-.287.18-.434.27-.147.092-.306.188-.477.172-.063-.008-.13-.028-.19 0-.56.27.063.86.286 1.137.294.595.926 1.029 1.271 1.591.104.169.104.398.211.555.143.204.481.16.56.377.012.036.044.069.072.097.14.132.282.265.421.393.136.129.298.266.481.237.02-.004.04-.008.056 0 .032.017.032.057.024.093-.08.502-.422.884-.775 1.217-.223.21-.27.177-.199.406.052.165.334.41.457.526l.374.354c.258.249.544.506.898.558.107.017.218.012.326.04.238.065.401.286.624.39.345.161.779.032 1.108.225.128.077.231.197.362.265.29.153.636.033.962-.008.568-.072.74.406 1.157.66.385.232.774.453 1.164.682l1.96 1.15c.341-.029.723-.013 1.056-.089.163-.036.326-.092.465-.197.287-.209.1-.149.215-.43.044-.1.207-.12.223-.229.008-.052-.028-.104-.044-.156-.024-.069-.012-.15-.008-.221.024-.258-.004-.523-.08-.768-.007-.024.144-.257.14-.345-.004-.113.953-.286 1.073-.322-.151.044.27 1.246.29 1.374l.6.442h3.66l-.111-1.434 3.935-2.981.93.165 1.311-.607.274 1.434 1.586.165c.024.016.024 1.23.024 1.23z"/>
    <path fill="#F05A9B" d="M22.724 16.31c.24 0 .433-.197.433-.438 0-.242-.194-.438-.433-.438s-.433.196-.433.438c0 .241.194.438.433.438zM19.796 9.163c.239 0 .433-.196.433-.438s-.194-.438-.433-.438c-.24 0-.434.196-.434.438s.194.438.434.438zM20.217 15.872c.24 0 .433-.196.433-.438s-.194-.438-.433-.438c-.24 0-.433.196-.433.438s.194.438.433.438zM22.724 23.366c.24 0 .433-.196.433-.438s-.194-.438-.433-.438-.433.196-.433.438.194.438.433.438zM17.753 21.4c.239 0 .433-.197.433-.439 0-.241-.194-.438-.433-.438-.24 0-.434.197-.434.438 0 .242.194.438.434.438zM21.083 19.347c.239 0 .433-.197.433-.438 0-.242-.194-.438-.433-.438-.24 0-.434.196-.434.438s.194.438.434.438zM21.083 31.862c.239 0 .433-.196.433-.438s-.194-.438-.433-.438c-.24 0-.434.196-.434.438s.194.438.434.438zM18.186 34.686c.24 0 .433-.196.433-.438 0-.241-.194-.438-.433-.438-.24 0-.433.197-.433.438 0 .242.194.438.433.438zM23.157 38.03c.24 0 .433-.196.433-.438s-.194-.438-.433-.438c-.24 0-.433.196-.433.438s.194.438.433.438zM19.052 41.98c.24 0 .433-.197.433-.439 0-.241-.193-.438-.433-.438-.239 0-.433.197-.433.438 0 .242.194.438.433.438zM22.724 42.686c.24 0 .433-.196.433-.438 0-.241-.194-.438-.433-.438s-.433.197-.433.438c0 .242.194.438.433.438zM24.779 45.214c.24 0 .433-.196.433-.438s-.194-.438-.433-.438c-.24 0-.433.196-.433.438s.194.438.433.438zM20.65 44.776c.239 0 .433-.196.433-.438s-.194-.438-.433-.438c-.24 0-.434.197-.434.438 0 .242.194.438.433.438zM19.784 47.753c.239 0 .433-.196.433-.438s-.194-.438-.433-.438c-.24 0-.433.196-.433.438s.194.438.433.438zM22.724 47.917c.24 0 .433-.196.433-.438s-.194-.438-.433-.438-.433.196-.433.438.194.438.433.438zM22.291 51.5c.24 0 .433-.195.433-.437s-.194-.438-.433-.438c-.24 0-.433.196-.433.438s.194.438.433.438zM28.507 23.366c.24 0 .433-.196.433-.438s-.194-.438-.433-.438c-.24 0-.433.196-.433.438s.194.438.433.438zM34.433 25.618c.239 0 .433-.196.433-.438s-.194-.438-.433-.438c-.24 0-.434.196-.434.438s.194.438.434.438zM43.935 23.804c.24 0 .433-.196.433-.438s-.194-.438-.433-.438c-.24 0-.433.196-.433.438s.194.438.433.438zM47.556 23.366c.239 0 .433-.196.433-.438s-.194-.438-.433-.438c-.24 0-.433.196-.433.438s.194.438.433.438zM47.556 20.224c.239 0 .433-.197.433-.438 0-.242-.194-.438-.433-.438-.24 0-.433.196-.433.438 0 .241.194.438.433.438zM45.898 26.837c.24 0 .434-.196.434-.438s-.194-.438-.434-.438c-.239 0-.433.196-.433.438s.194.438.433.438zM36.758 28.589c.24 0 .433-.196.433-.438s-.194-.438-.433-.438c-.24 0-.433.196-.433.438s.194.438.433.438zM32.764 30.231c.239 0 .433-.196.433-.438 0-.241-.194-.438-.433-.438-.24 0-.433.197-.433.438 0 .242.194.438.433.438zM28.507 36.21c.24 0 .433-.196.433-.438s-.194-.438-.433-.438c-.24 0-.433.196-.433.438s.194.438.433.438zM28.507 27.712c.24 0 .433-.196.433-.438s-.194-.438-.433-.438c-.24 0-.433.196-.433.438s.194.438.433.438zM18.186 27.712c.24 0 .433-.196.433-.438s-.194-.438-.433-.438c-.24 0-.433.196-.433.438s.194.438.433.438zM14.199 23.585c.24 0 .433-.196.433-.438s-.194-.438-.433-.438c-.24 0-.433.196-.433.438s.194.438.433.438zM31.897 34.249c.239 0 .433-.196.433-.438s-.194-.438-.433-.438c-.24 0-.434.196-.434.438s.194.438.434.438zM26.492 30.669c.24 0 .433-.196.433-.438s-.194-.438-.433-.438-.433.196-.433.438.194.438.433.438zM22.291 11.71c.24 0 .433-.196.433-.438s-.194-.438-.433-.438c-.24 0-.433.196-.433.438s.194.438.433.438z"/>
    <path fill="#fff" stroke="#EDEDFD" stroke-miterlimit="10" strokeWidth=".804" d="M12.898 25.2c4.008 0 7.258-3.286 7.258-7.338 0-4.053-3.25-7.339-7.258-7.339-4.01 0-7.26 3.286-7.26 7.338 0 4.053 3.25 7.339 7.26 7.339z"/>
    <path fill="#F05A9B" d="M14.95 16.834c-.503.652-1.284 1.07-2.164 1.07-.878 0-1.66-.42-2.165-1.07-.992.498-1.58.815-1.83 2.064-.097.488-.11.873-.11.873-.009.315-.009.6-.006.815.002.204.166.368.366.368h7.487c.203 0 .364-.164.367-.366.002-.211.002-.5-.01-.815 0 0-.014-.423-.107-.875-.247-1.249-.835-1.566-1.827-2.064z"/>
    <path fill="#F05A9B" d="M12.786 17.629c-1.365 0-2.476-1.124-2.476-2.504s1.11-2.504 2.476-2.504c.662 0 1.285.26 1.751.734.469.473.726 1.101.726 1.77 0 1.38-1.111 2.504-2.477 2.504z"/>
    <path fill="#fff" d="M12.786 12.894c1.218 0 2.208 1 2.208 2.232 0 1.233-.99 2.232-2.208 2.232-1.218 0-2.208-.999-2.208-2.232 0-1.234.99-2.232 2.208-2.232zm0-.546c-1.515 0-2.748 1.245-2.748 2.778 0 1.532 1.232 2.778 2.748 2.778 1.516 0 2.748-1.246 2.748-2.778s-1.232-2.778-2.748-2.778z"/>
    <path fill="#fff" stroke="#EDEDFD" stroke-miterlimit="10" strokeWidth=".804" d="M37.233 37.993c4.01 0 7.26-3.286 7.26-7.339 0-4.052-3.25-7.338-7.26-7.338-4.008 0-7.258 3.286-7.258 7.338 0 4.053 3.25 7.339 7.258 7.339z"/>
    <path fill="#F05A9B" d="M39.285 29.625c-.504.652-1.284 1.07-2.165 1.07-.878 0-1.66-.42-2.165-1.07-.992.498-1.58.815-1.83 2.064-.097.488-.109.873-.109.873-.01.315-.01.601-.007.815.002.204.167.368.367.368h7.487c.202 0 .364-.163.366-.366.002-.211.002-.5-.01-.815 0 0-.014-.423-.107-.875-.247-1.249-.835-1.566-1.827-2.064z"/>
    <path fill="#F05A9B" d="M37.12 30.42c-1.365 0-2.476-1.124-2.476-2.504s1.111-2.504 2.477-2.504c.661 0 1.285.26 1.75.734.47.473.726 1.101.726 1.77 0 1.38-1.11 2.504-2.476 2.504z"/>
    <path fill="#fff" d="M37.12 25.685c1.219 0 2.208 1 2.208 2.232 0 1.233-.99 2.232-2.208 2.232-1.218 0-2.207-.999-2.207-2.232 0-1.234.99-2.232 2.208-2.232zm0-.546c-1.515 0-2.747 1.245-2.747 2.778 0 1.532 1.232 2.777 2.748 2.777 1.515 0 2.747-1.245 2.747-2.777 0-1.533-1.232-2.778-2.748-2.778z"/>
    <path fill="#fff" stroke="#EDEDFD" stroke-miterlimit="10" strokeWidth=".804" d="M19.71 48.325c4.01 0 7.26-3.286 7.26-7.339 0-4.052-3.25-7.338-7.26-7.338-4.008 0-7.258 3.286-7.258 7.338 0 4.053 3.25 7.339 7.259 7.339z"/>
    <path fill="#F05A9B" d="M21.763 39.957c-.504.652-1.284 1.07-2.165 1.07-.878 0-1.66-.42-2.165-1.07-.992.498-1.58.815-1.83 2.064-.097.488-.109.873-.109.873-.01.315-.01.601-.007.815.002.204.167.368.367.368h7.487c.202 0 .364-.163.366-.365.002-.212.002-.5-.01-.816 0 0-.014-.423-.107-.875-.247-1.249-.834-1.566-1.827-2.064z"/>
    <path fill="#F05A9B" d="M19.6 40.752c-1.366 0-2.477-1.124-2.477-2.504s1.11-2.504 2.476-2.504c.662 0 1.285.26 1.751.734.469.474.726 1.101.726 1.77 0 1.38-1.111 2.504-2.477 2.504z"/>
    <path fill="#fff" d="M19.599 36.017c1.218 0 2.208 1 2.208 2.232 0 1.233-.99 2.232-2.208 2.232-1.218 0-2.208-.998-2.208-2.232 0-1.234.99-2.232 2.208-2.232zm0-.546c-1.515 0-2.748 1.246-2.748 2.778s1.233 2.778 2.748 2.778c1.515 0 2.748-1.246 2.748-2.778s-1.233-2.778-2.748-2.778z"/>
</svg>
