<svg xmlns="http://www.w3.org/2000/svg" width="97" height="23" fill="none" viewBox="0 0 97 23">
    <path fill="url(#paint0_linear)" fill-rule="evenodd" d="M69.255 0c.936.007 1.682.763 1.676 1.695l-.07 7.45c1.212-1.07 2.545-1.31 3.998-1.304 1.454.007 2.973.65 3.955 1.726.838.932 1.244 2.418 1.23 4.451l-.052 7.248c-.006.932-.766 1.675-1.702 1.668-.936-.007-1.683-.763-1.676-1.695l.046-6.927c.006-1.167-.197-2.014-.602-2.535-.413-.528-1.08-.795-2.004-.795-1.179-.007-2.017.351-2.501 1.075-.478.736-.72 2-.733 3.793l-.04 5.363c-.006.932-.766 1.675-1.702 1.669-.936-.007-1.683-.763-1.676-1.695l.144-19.506c.013-.945.772-1.687 1.709-1.681zM14.352 7.836c1.624.013 2.992.593 4.118 1.734 1.14 1.147 1.703 2.515 1.69 4.131l-.046 7.6c-.007.905-.747 1.635-1.663 1.635-.91-.006-1.644-.743-1.637-1.648l.046-7.6c.006-.703-.23-1.303-.74-1.805-.478-.495-1.08-.743-1.788-.743-.72-.006-1.349.254-1.86.789-.464.482-.693 1.147-.7 1.818l-.039 7.488c-.007.92-.76 1.662-1.683 1.656-.923-.007-1.67-.756-1.663-1.675l.046-7.534c.007-.658-.223-1.31-.674-1.792-.504-.535-1.12-.795-1.853-.802-.694-.006-1.283.228-1.8.724-.485.488-.747 1.088-.747 1.792l-.046 7.592c-.007.913-.753 1.65-1.67 1.643-.916-.007-1.65-.75-1.643-1.662l.046-7.567c.006-1.4.504-2.776 1.44-3.819 1.212-1.342 2.704-2.014 4.44-2 1.656.012 3.07.606 4.203 1.811 1.165-1.199 2.566-1.772 4.223-1.766zm20.876 8.413l-9.474-.06c.078 1.173.458 2.105 1.126 2.803.674.684 1.538 1.036 2.593 1.042.825.007 1.505-.182 2.049-.573.32-.235.668-.58 1.04-1.056.485-.606 1.324-.795 1.998-.417l.098.052c.845.476 1.035 1.597.413 2.34-.105.123-.21.247-.321.365-.485.521-1.002.945-1.552 1.277-.55.332-1.146.574-1.78.724-.642.15-1.33.228-2.076.221-2.135-.013-3.85-.71-5.134-2.085-1.283-1.382-1.918-3.213-1.905-5.488.013-2.255.655-4.073 1.918-5.455 1.277-1.368 2.953-2.046 5.042-2.027 2.108.013 3.771.691 4.983 2.04 1.204 1.336 1.8 3.174 1.787 5.527-.01.43-.369.773-.805.77zm-5.913-5.365c1.762.007 2.868.893 3.32 2.653l-6.646-.04c.112-.41.269-.775.478-1.094.21-.32.459-.593.747-.822.294-.228.615-.403.969-.52.353-.125.733-.183 1.132-.177zm21.686 5.365l-9.475-.06c.078 1.173.458 2.105 1.126 2.803.675.684 1.539 1.036 2.593 1.042.825.007 1.506-.182 2.05-.573.32-.235.667-.58 1.04-1.056.485-.606 1.323-.795 1.997-.417l.098.052c.845.476 1.035 1.597.413 2.34-.105.124-.21.247-.32.365-.486.521-1.003.945-1.553 1.277-.55.332-1.145.574-1.78.724-.642.15-1.33.228-2.076.221-2.135-.013-3.85-.71-5.133-2.085-1.284-1.382-1.919-3.213-1.906-5.488.014-2.255.655-4.073 1.919-5.455 1.277-1.368 2.953-2.046 5.041-2.027 2.109.013 3.772.691 4.983 2.04 1.205 1.336 1.8 3.174 1.787 5.527-.01.43-.368.773-.804.77zm-5.913-5.365c1.76.007 2.867.893 3.32 2.653l-6.646-.04c.11-.41.268-.775.478-1.094.21-.32.451-.593.746-.822.295-.228.615-.403.969-.52.354-.125.733-.183 1.133-.177zm39.184-.527c-1.46 1.4-2.194 3.108-2.207 5.122-.013 2.138.688 3.917 2.089 5.338 1.414 1.44 3.162 2.17 5.264 2.183 2.115.013 3.909-.671 5.375-2.066 1.46-1.408 2.194-3.148 2.207-5.24.013-2.066-.694-3.819-2.122-5.246-1.447-1.434-3.214-2.157-5.303-2.17-2.076-.02-3.85.677-5.303 2.079zm1.1 5.2c-.007 1.395.353 2.496 1.1 3.31.76.829 1.767 1.246 3.025 1.252 1.263.007 2.278-.39 3.037-1.199.76-.808 1.146-1.883 1.16-3.239.006-1.355-.36-2.437-1.114-3.252-.76-.821-1.767-1.245-3.025-1.251-1.237-.007-2.239.397-3.011 1.212-.773.814-1.16 1.87-1.172 3.167zM65.23 18.231c-.02-1.21-.529-2.205-1.542-2.97-.875-.651-1.977-1.052-3.04-1.378l-.271-.088-.038-.012c-1.37-.44-2.656-.853-2.656-1.617v-.05c0-.664.66-1.09 1.68-1.09.8 0 1.757.25 2.77.72.214.1.44.15.68.15.579 0 1.12-.313 1.403-.82l.007-.006c.214-.389.264-.852.126-1.272-.139-.426-.454-.77-.856-.959-1.303-.601-2.732-.927-4.042-.927-3.115 0-5.293 1.873-5.293 4.549v.05c0 1.303.503 2.306 1.536 3.07.868.639 1.989 1.009 3.065 1.316.107.031.214.062.327.1 1.618.489 2.606.84 2.606 1.585v.05c0 .37-.182 1.222-1.894 1.222-1.083 0-2.273-.35-3.437-1.015-.24-.138-.51-.207-.787-.207-.541 0-1.045.27-1.34.72-.246.37-.322.822-.221 1.247.1.433.371.796.762 1.015 1.523.871 3.279 1.354 4.947 1.354 1.567 0 2.914-.401 3.884-1.16 1.057-.826 1.624-2.048 1.624-3.527v-.05z" clip-rule="evenodd"/>
    <defs>
        <linearGradient id="paint0_linear" x1="0" x2="97" y1="23" y2="23" gradientUnits="userSpaceOnUse">
            <stop stop-color="#F64976"/>
            <stop offset="1" stop-color="#FF85C0"/>
        </linearGradient>
    </defs>
</svg>
