<svg xmlns="http://www.w3.org/2000/svg" width="58" height="58" fill="none" viewBox="0 0 58 58">
    <path fill="#F05A9B" d="M38.557 24.406c-1.018 5.858-6.443 9.294-8.59 10.44-.546.294-1.203.294-1.75-.005-2.37-1.285-8.759-5.39-8.759-12.382 0-5.414 4.528-9.777 10.023-9.563 5.882.24 10.079 5.753 9.076 11.51z"/>
    <path fill="#fff" d="M29.08 25.338c1.581 0 2.863-1.273 2.863-2.844 0-1.57-1.282-2.844-2.863-2.844s-2.863 1.274-2.863 2.844c0 1.57 1.282 2.844 2.863 2.844z"/>
    <path fill="#EDEDFD" d="M44.82 41.32s-1.103-3.292-2.612-6.25c-1.505-2.964-1.204-2.521-4.418-2.521 0 0-3.114 4.776-8.79 5.07-5.676-.294-8.79-5.07-8.79-5.07-3.214 0-2.913-.438-4.417 2.52-1.504 2.963-2.613 6.25-2.613 6.25s-1.604 3.79 2.713 3.79h26.204c4.328 0 2.723-3.79 2.723-3.79z"/>
</svg>
