<svg xmlns="http://www.w3.org/2000/svg" width="58" height="58" fill="none" viewBox="0 0 58 58">
    <path fill="#EDEDFD" d="M50.262 27.61c.533.165 1.054.357 1.51.609 1.593.892 2.423 2.793 2.906 4.51.178.636.116 1.328-.17 1.897-1.077 2.109-6.736 2.757-11.31 2.757-4.574 0-10.233-.648-11.31-2.757-.29-.564-.351-1.257-.174-1.893.456-1.633 1.216-3.401 2.648-4.354 1.44-.956 2.81-.944 4.412-1.128.066-.008.135-.012.193.02.058.032.093.096.124.16.397.812.86 1.644 1.679 2.065 1.274.656 2.795.776 4.15.328.725-.24 1.4-.64 1.976-1.16.46-.417.984-1.617 1.656-1.441.567.144 1.158.216 1.71.388z"/>
    <path fill="#F05A9B" d="M39.082 26.525c.031-.012.059-.028.09-.04.617-.281 1.02-.69 1.407-1.25.235.407.414.676.786.953.324.24.676.446 1.048.598.441.18.903.281 1.376.281.473 0 .934-.1 1.372-.28.649-.266 1.259-.708 1.806-1.262.004 0 .008.004.012.004.011.723.578 1.189 1.208 1.337.926.217 1.872.342 2.818.366-.152-.004-.434-.41-.5-.534-.067-.133-.121-.273-.164-.414-.106-.317-.172-.65-.22-.98-.109-.759-.12-1.53-.1-2.297.03-1.173.148-2.35.331-3.507l.024-.152c0-9.696-6.384-8.744-6.384-8.744l-.23-.012c-.079.004-.153.004-.231.012 0 0-6.384-.956-6.384 8.744.23 1.333.352 2.703.363 4.052.008 1.221-.011 2.515-.664 3.583.05-.012.129-.032.195-.036.708-.064 1.384-.14 2.04-.422zm-.606-6.221c-.11-.619-.024-1.165.188-1.322.03-.024.058-.036.093-.044.079-.012.157.016.235.08v-.02c.027-.269.375-3.285 2.572-3.076l6.72 3.554.544-.538c.02.004.039.008.054.016.239.113.34.691.227 1.346-.086.502-.281.915-.48 1.096-.083.068-.165.105-.243.088-.043-.008-.086-.028-.121-.064-.45 1.43-1.306 2.86-2.385 3.715-.633.502-1.337.808-2.088.808-.75 0-1.465-.31-2.099-.82-1.075-.855-1.927-2.281-2.373-3.707-.035.036-.078.06-.12.064-.09.017-.193-.028-.282-.128-.188-.185-.36-.578-.442-1.048z"/>
    <path fill="#EDEDFD" d="M21.866 27.61c.533.165 1.054.357 1.51.609 1.594.892 2.424 2.793 2.906 4.51.178.636.116 1.328-.17 1.897-1.076 2.109-6.735 2.757-11.31 2.757-4.574 0-10.233-.648-11.31-2.757-.29-.564-.35-1.257-.173-1.893.455-1.633 1.216-3.401 2.648-4.354 1.44-.956 2.81-.944 4.412-1.128.065-.008.135-.012.193.02.058.032.092.096.123.16.398.812.861 1.644 1.68 2.065 1.273.656 2.794.776 4.15.328.725-.24 1.4-.64 1.975-1.16.46-.417.985-1.617 1.656-1.441.568.144 1.159.216 1.71.388z"/>
    <path fill="#F05A9B" d="M9.109 21.928c.135.464.378 1.369.915 1.901.401 1.577 1.61 3.381 3.532 4.102.47.164.938.256 1.45.256.491 0 .962-.092 1.433-.256 1.922-.697 3.127-2.525 3.532-4.122.537-.532.784-1.437.915-1.9.2-.741.425-1.83-.135-2.594-.023-.024-.047-.048-.066-.092.158-.928.158-1.713-.023-2.433-.224-.972-.714-1.877-1.451-2.641-.379-.416-.803-.788-1.274-1.089-.425-.3-.85-.532-1.297-.696-.402-.14-.826-.232-1.228-.256-.158-.024-.336-.024-.494-.024-.938 0-1.787.232-2.547.696-.672.393-1.097.857-1.34 1.18-.336.14-.714.373-1.073.833-.737.973-.961 2.477-.649 4.47-.023.024-.046.048-.065.092-.56.744-.336 1.833-.135 2.573zm1.386-2.085h.065v-.024c-.066-.232-.401-1.596.737-2.409.915.232 2.301.256 4.18-.58 3.599-1.597 3.934 3.013 3.934 3.013h.066c.378 0 .76.3.336 1.785-.313 1.157-.602 1.485-.826 1.505-.201 1.388-1.228 3.15-2.926 3.753-.336.116-.714.184-1.073.184-.36 0-.738-.068-1.073-.184-1.653-.624-2.726-2.365-2.926-3.753-.224-.024-.514-.348-.827-1.505-.428-1.48-.05-1.785.332-1.785z"/>
    <path fill="#fff" d="M17.49 38.103c.532-.453 1.134-.769 1.79-1.137.904-.508 1.753-1.284 1.907-2.389.274-1.977-.247-3.953-.13-5.93.17-2.914.721-6.455 3.022-8.468 2.547-2.233 6.767-1.709 9.28.312 1.088.877 1.914 2.081 2.242 3.474.471 1.997.556 4.077.417 6.126-.154 2.285-.63 5.443 1.683 6.743.768.432 1.47 1.2 2.262 1.6.834.417.625 1.786.355 2.702-.158.54-.606.952-1.104 1.184-.498.233-1.05.309-1.594.369-4.771.54-9.585.16-14.367-.24-1.054-.088-2.108-.176-3.146-.385-1.135-.224-3.278-.576-3.594-1.98-.197-.9.37-1.47.976-1.981z"/>
    <path fill="#F05A9B" d="M23.713 36.312c.031-.012.058-.028.09-.04.617-.281 1.02-.69 1.407-1.25.235.407.414.676.786.953.324.24.676.446 1.047.598.442.181.904.281 1.377.281.472 0 .934-.1 1.372-.28.649-.266 1.258-.708 1.806-1.262.004 0 .008.004.012.004.011.723.578 1.189 1.208 1.338.926.216 1.872.341 2.818.365-.152-.004-.434-.41-.5-.534-.067-.133-.122-.273-.165-.414-.105-.317-.171-.65-.218-.98-.11-.759-.122-1.53-.102-2.297.031-1.173.148-2.35.332-3.506l.024-.153c0-9.696-6.384-8.744-6.384-8.744l-.23-.012c-.08.004-.153.004-.232.012 0 0-6.383-.956-6.383 8.744.23 1.333.351 2.703.363 4.052.008 1.221-.012 2.515-.664 3.583.05-.012.129-.032.195-.036.708-.064 1.384-.14 2.04-.422zm-.606-6.221c-.11-.619-.024-1.165.187-1.322.032-.024.059-.036.094-.044.078-.012.157.016.235.08v-.02c.027-.269.375-3.285 2.572-3.076l6.72 3.554.544-.538c.02.004.039.008.054.016.239.113.34.691.227 1.346-.086.502-.281.916-.48 1.096-.083.069-.165.105-.243.089-.043-.008-.086-.028-.121-.065-.45 1.43-1.306 2.86-2.385 3.715-.633.503-1.337.808-2.088.808-.75 0-1.466-.31-2.099-.82-1.075-.855-1.927-2.28-2.373-3.707-.035.037-.078.06-.121.065-.09.016-.192-.029-.281-.129-.188-.185-.36-.578-.442-1.048z"/>
    <path fill="#000" d="M32.516 37.217c.055-.072.098-.145.133-.22-.144.168-.277.352-.406.53.105-.11.195-.214.273-.31zM35.613 37.044c-.031-.012-.067-.02-.098-.032l.012.012c.027.004.055.012.086.02z"/>
    <path fill="#EDEDFD" d="M39.56 43.972c.29-.57.353-1.261.173-1.9-.489-1.727-1.33-3.631-2.944-4.527-.688-.381-1.442-.622-2.205-.795-.578-.132-1.583-.502-1.939.25-.035.075-.078.148-.133.22-.074.1-.168.2-.277.31-.133.18-.262.345-.383.457-.583.522-1.267.924-2.002 1.165-1.372.446-2.912.325-4.202-.33-.438-.224-.794-.578-1.08-.98-.335-.47-.59-1-.879-1.502-.133-.233-.63-.016-.817.029-.407.092-.81.188-1.204.325-1.2.41-2.58 1.064-3.382 2.104-.73.944-1.188 2.101-1.513 3.258-.18.638-.117 1.333.176 1.9 1.091 2.116 6.822 2.77 11.455 2.767.688 0 1.403-.016 2.122-.044 4.02-.201 8.128-.948 9.035-2.707z"/>
</svg>
